REM DIRINDEX 1\8,1\2\11,1\3\12,1\3\14,1\5\15,1\5\16,1\6\17,1\6\18,1\4\19,1\4\20,1\4\21,1\4\22,1\7\23,1\7\24,1\7\25,1\2\9\26,1\2\9\27,1\2\10\28,1\2\10\29,1\2\10\30,1\2\10\31,1\2\10\32,1\3\13\33,1\3\13\34,1\3\13\35
REM DIRNAME folder01,folder02,folder03,folder04,folder05,folder06,folder07,folder08,folder09,folder10,folder11,folder12,folder13,folder14,folder15,folder16,folder17,folder18,folder19,folder20,folder21,folder22,folder23,folder24,folder25,folder26,folder27,folder28,folder29,folder30,folder31,folder32,folder33,folder34,folder35
TITLE ""
FILE "62 062_UNIT6_SET3.mp3" MP3
  TRACK 01 AUDIO
    TITLE "11:cjc123_6261"
    INDEX 01 00:00:00
  TRACK 02 AUDIO
    TITLE "0:"
    INDEX 01 00:02:53
  TRACK 03 AUDIO
    TITLE "28:cjc123_6262"
    INDEX 01 00:03:31
  TRACK 04 AUDIO
    TITLE "0:"
    INDEX 01 00:04:36
  TRACK 05 AUDIO
    TITLE "29:cjc123_6263"
    INDEX 01 00:04:56
  TRACK 06 AUDIO
    TITLE "0:"
    INDEX 01 00:05:63
  TRACK 07 AUDIO
    TITLE "30:cjc123_6264"
    INDEX 01 00:05:69
  TRACK 08 AUDIO
    TITLE "0:"
    INDEX 01 00:06:71
  TRACK 09 AUDIO
    TITLE "31:cjc123_6265"
    INDEX 01 00:07:49
  TRACK 10 AUDIO
    TITLE "0:"
    INDEX 01 00:11:52
  TRACK 11 AUDIO
    TITLE "32:cjc123_6266"
    INDEX 01 00:12:09
  TRACK 12 AUDIO
    TITLE "0:"
    INDEX 01 00:15:54
  TRACK 13 AUDIO
    TITLE "28:cjc123_6267"
    INDEX 01 00:16:30
  TRACK 14 AUDIO
    TITLE "0:"
    INDEX 01 00:17:53
  TRACK 15 AUDIO
    TITLE "29:cjc123_6268"
    INDEX 01 00:17:65
  TRACK 16 AUDIO
    TITLE "0:"
    INDEX 01 00:18:74
  TRACK 17 AUDIO
    TITLE "30:cjc123_6269"
    INDEX 01 00:19:15
  TRACK 18 AUDIO
    TITLE "0:"
    INDEX 01 00:20:59
  TRACK 19 AUDIO
    TITLE "31:cjc123_6270"
    INDEX 01 00:21:29
  TRACK 20 AUDIO
    TITLE "0:"
    INDEX 01 00:25:33
  TRACK 21 AUDIO
    TITLE "32:cjc123_6271"
    INDEX 01 00:25:72
  TRACK 22 AUDIO
    TITLE "0:"
    INDEX 01 00:29:38
  TRACK 23 AUDIO
    TITLE "28:cjc123_6272"
    INDEX 01 00:30:10
  TRACK 24 AUDIO
    TITLE "0:"
    INDEX 01 00:31:20
  TRACK 25 AUDIO
    TITLE "29:cjc123_6273"
    INDEX 01 00:31:39
  TRACK 26 AUDIO
    TITLE "0:"
    INDEX 01 00:32:66
  TRACK 27 AUDIO
    TITLE "30:cjc123_6274"
    INDEX 01 00:32:70
  TRACK 28 AUDIO
    TITLE "0:"
    INDEX 01 00:34:06
  TRACK 29 AUDIO
    TITLE "31:cjc123_6275"
    INDEX 01 00:34:55
  TRACK 30 AUDIO
    TITLE "0:"
    INDEX 01 00:41:02
  TRACK 31 AUDIO
    TITLE "32:cjc123_6276"
    INDEX 01 00:41:40
  TRACK 32 AUDIO
    TITLE "0:"
    INDEX 01 00:46:41
  TRACK 33 AUDIO
    TITLE "28:cjc123_6277"
    INDEX 01 00:47:13
  TRACK 34 AUDIO
    TITLE "0:"
    INDEX 01 00:48:10
  TRACK 35 AUDIO
    TITLE "29:cjc123_6278"
    INDEX 01 00:48:20
  TRACK 36 AUDIO
    TITLE "0:"
    INDEX 01 00:49:35
  TRACK 37 AUDIO
    TITLE "30:cjc123_6279"
    INDEX 01 00:49:43
  TRACK 38 AUDIO
    TITLE "0:"
    INDEX 01 00:50:44
  TRACK 39 AUDIO
    TITLE "31:cjc123_6280"
    INDEX 01 00:51:26
  TRACK 40 AUDIO
    TITLE "0:"
    INDEX 01 00:57:19
  TRACK 41 AUDIO
    TITLE "32:cjc123_6281"
    INDEX 01 00:57:72
  TRACK 42 AUDIO
    TITLE "0:"
    INDEX 01 01:03:63
  TRACK 43 AUDIO
    TITLE "28:cjc123_6282"
    INDEX 01 01:04:29
  TRACK 44 AUDIO
    TITLE "0:"
    INDEX 01 01:05:40
  TRACK 45 AUDIO
    TITLE "29:cjc123_6283"
    INDEX 01 01:05:52
  TRACK 46 AUDIO
    TITLE "0:"
    INDEX 01 01:07:15
  TRACK 47 AUDIO
    TITLE "30:cjc123_6284"
    INDEX 01 01:07:21
  TRACK 48 AUDIO
    TITLE "0:"
    INDEX 01 01:08:31
  TRACK 49 AUDIO
    TITLE "31:cjc123_6285"
    INDEX 01 01:09:18
  TRACK 50 AUDIO
    TITLE "0:"
    INDEX 01 01:13:65
  TRACK 51 AUDIO
    TITLE "32:cjc123_6286"
    INDEX 01 01:14:04
  TRACK 52 AUDIO
    TITLE "0:"
    INDEX 01 01:20:10
  TRACK 53 AUDIO
    TITLE "28:cjc123_6287"
    INDEX 01 01:20:38
  TRACK 54 AUDIO
    TITLE "0:"
    INDEX 01 01:21:61
  TRACK 55 AUDIO
    TITLE "29:cjc123_6288"
    INDEX 01 01:22:05
  TRACK 56 AUDIO
    TITLE "0:"
    INDEX 01 01:23:30
  TRACK 57 AUDIO
    TITLE "30:cjc123_6289"
    INDEX 01 01:23:38
  TRACK 58 AUDIO
    TITLE "0:"
    INDEX 01 01:24:61
  TRACK 59 AUDIO
    TITLE "31:cjc123_6290"
    INDEX 01 01:25:45
  TRACK 60 AUDIO
    TITLE "0:"
    INDEX 01 01:29:60
  TRACK 61 AUDIO
    TITLE "32:cjc123_6291"
    INDEX 01 01:30:34
  TRACK 62 AUDIO
    TITLE "0:"
    INDEX 01 01:34:30
  TRACK 63 AUDIO
    TITLE "28:cjc123_6292"
    INDEX 01 01:34:55
  TRACK 64 AUDIO
    TITLE "0:"
    INDEX 01 01:36:05
  TRACK 65 AUDIO
    TITLE "29:cjc123_6293"
    INDEX 01 01:36:23
  TRACK 66 AUDIO
    TITLE "0:"
    INDEX 01 01:37:22
  TRACK 67 AUDIO
    TITLE "30:cjc123_6294"
    INDEX 01 01:37:30
  TRACK 68 AUDIO
    TITLE "0:"
    INDEX 01 01:38:65
  TRACK 69 AUDIO
    TITLE "31:cjc123_6295"
    INDEX 01 01:39:47
  TRACK 70 AUDIO
    TITLE "0:"
    INDEX 01 01:44:36
  TRACK 71 AUDIO
    TITLE "32:cjc123_6296"
    INDEX 01 01:45:08
  TRACK 72 AUDIO
    TITLE "0:"
    INDEX 01 01:49:63
  TRACK 73 AUDIO
    TITLE "28:cjc123_6297"
    INDEX 01 01:50:35
  TRACK 74 AUDIO
    TITLE "0:"
    INDEX 01 01:51:46
  TRACK 75 AUDIO
    TITLE "29:cjc123_6298"
    INDEX 01 01:51:56
  TRACK 76 AUDIO
    TITLE "0:"
    INDEX 01 01:53:29
  TRACK 77 AUDIO
    TITLE "30:cjc123_6299"
    INDEX 01 01:53:43
  TRACK 78 AUDIO
    TITLE "0:"
    INDEX 01 01:54:54
  TRACK 79 AUDIO
    TITLE "31:cjc123_6300"
    INDEX 01 01:55:24
  TRACK 80 AUDIO
    TITLE "0:"
    INDEX 01 02:01:37
  TRACK 81 AUDIO
    TITLE "32:cjc123_6301"
    INDEX 01 02:01:72
  TRACK 82 AUDIO
    TITLE "0:"
    INDEX 01 02:08:48
  TRACK 83 AUDIO
    TITLE "28:cjc123_6302"
    INDEX 01 02:09:22
  TRACK 84 AUDIO
    TITLE "0:"
    INDEX 01 02:10:32
  TRACK 85 AUDIO
    TITLE "29:cjc123_6303"
    INDEX 01 02:10:49
  TRACK 86 AUDIO
    TITLE "0:"
    INDEX 01 02:12:05
  TRACK 87 AUDIO
    TITLE "30:cjc123_6304"
    INDEX 01 02:12:15
  TRACK 88 AUDIO
    TITLE "0:"
    INDEX 01 02:13:36
  TRACK 89 AUDIO
    TITLE "31:cjc123_6305"
    INDEX 01 02:14:02
  TRACK 90 AUDIO
    TITLE "0:"
    INDEX 01 02:19:66
  TRACK 91 AUDIO
    TITLE "32:cjc123_6306"
    INDEX 01 02:20:28
  TRACK 92 AUDIO
    TITLE "0:"
    INDEX 01 02:25:68
  TRACK 93 AUDIO
    TITLE "28:cjc123_6307"
    INDEX 01 02:26:35
  TRACK 94 AUDIO
    TITLE "0:"
    INDEX 01 02:27:40
  TRACK 95 AUDIO
    TITLE "29:cjc123_6308"
    INDEX 01 02:27:46
  TRACK 96 AUDIO
    TITLE "0:"
    INDEX 01 02:29:15
  TRACK 97 AUDIO
    TITLE "30:cjc123_6309"
    INDEX 01 02:29:21
  TRACK 98 AUDIO
    TITLE "0:"
    INDEX 01 02:30:32
  TRACK 99 AUDIO
    TITLE "31:cjc123_6310"
    INDEX 01 02:31:08
  TRACK 100 AUDIO
    TITLE "0:"
    INDEX 01 02:36:10
  TRACK 101 AUDIO
    TITLE "32:cjc123_6311"
    INDEX 01 02:36:66
  TRACK 102 AUDIO
    TITLE "0:"
    INDEX 01 02:42:63
  TRACK 103 AUDIO
    TITLE "28:cjc123_6312"
    INDEX 01 02:43:14
  TRACK 104 AUDIO
    TITLE "0:"
    INDEX 01 02:44:29
  TRACK 105 AUDIO
    TITLE "29:cjc123_6313"
    INDEX 01 02:44:42
  TRACK 106 AUDIO
    TITLE "0:"
    INDEX 01 02:46:02
  TRACK 107 AUDIO
    TITLE "30:cjc123_6314"
    INDEX 01 02:46:10
  TRACK 108 AUDIO
    TITLE "0:"
    INDEX 01 02:47:21
  TRACK 109 AUDIO
    TITLE "31:cjc123_6315"
    INDEX 01 02:48:13
  TRACK 110 AUDIO
    TITLE "0:"
    INDEX 01 02:53:30
  TRACK 111 AUDIO
    TITLE "32:cjc123_6316"
    INDEX 01 02:53:45
  TRACK 112 AUDIO
    TITLE "0:"
    INDEX 01 02:58:52
  TRACK 113 AUDIO
    TITLE "28:cjc123_6317"
    INDEX 01 02:59:11
  TRACK 114 AUDIO
    TITLE "0:"
    INDEX 01 03:00:20
  TRACK 115 AUDIO
    TITLE "29:cjc123_6318"
    INDEX 01 03:00:26
  TRACK 116 AUDIO
    TITLE "0:"
    INDEX 01 03:01:41
  TRACK 117 AUDIO
    TITLE "30:cjc123_6319"
    INDEX 01 03:01:49
  TRACK 118 AUDIO
    TITLE "0:"
    INDEX 01 03:02:66
  TRACK 119 AUDIO
    TITLE "31:cjc123_6320"
    INDEX 01 03:03:42
  TRACK 120 AUDIO
    TITLE "0:"
    INDEX 01 03:08:55
  TRACK 121 AUDIO
    TITLE "32:cjc123_6321"
    INDEX 01 03:09:13
  TRACK 122 AUDIO
    TITLE "0:"
    INDEX 01 03:14:10
  TRACK 123 AUDIO
    TITLE "28:cjc123_6322"
    INDEX 01 03:14:53
  TRACK 124 AUDIO
    TITLE "0:"
    INDEX 01 03:15:59
  TRACK 125 AUDIO
    TITLE "29:cjc123_6323"
    INDEX 01 03:15:70
  TRACK 126 AUDIO
    TITLE "0:"
    INDEX 01 03:16:62
  TRACK 127 AUDIO
    TITLE "30:cjc123_6324"
    INDEX 01 03:16:66
  TRACK 128 AUDIO
    TITLE "0:"
    INDEX 01 03:17:69
  TRACK 129 AUDIO
    TITLE "31:cjc123_6325"
    INDEX 01 03:18:39
  TRACK 130 AUDIO
    TITLE "0:"
    INDEX 01 03:22:63
  TRACK 131 AUDIO
    TITLE "32:cjc123_6326"
    INDEX 01 03:23:27
  TRACK 132 AUDIO
    TITLE "0:"
    INDEX 01 03:27:05
  TRACK 133 AUDIO
    TITLE "28:cjc123_6327"
    INDEX 01 03:27:30
  TRACK 134 AUDIO
    TITLE "0:"
    INDEX 01 03:28:44
  TRACK 135 AUDIO
    TITLE "29:cjc123_6328"
    INDEX 01 03:28:61
  TRACK 136 AUDIO
    TITLE "0:"
    INDEX 01 03:29:70
  TRACK 137 AUDIO
    TITLE "30:cjc123_6329"
    INDEX 01 03:30:03
  TRACK 138 AUDIO
    TITLE "0:"
    INDEX 01 03:31:11
  TRACK 139 AUDIO
    TITLE "31:cjc123_6330"
    INDEX 01 03:31:71
  TRACK 140 AUDIO
    TITLE "0:"
    INDEX 01 03:37:03
  TRACK 141 AUDIO
    TITLE "32:cjc123_6331"
    INDEX 01 03:37:35
  TRACK 142 AUDIO
    TITLE "0:"
    INDEX 01 03:42:42
  TRACK 143 AUDIO
    TITLE "28:cjc123_6332"
    INDEX 01 03:43:18
  TRACK 144 AUDIO
    TITLE "0:"
    INDEX 01 03:44:27
  TRACK 145 AUDIO
    TITLE "29:cjc123_6333"
    INDEX 01 03:44:45
  TRACK 146 AUDIO
    TITLE "0:"
    INDEX 01 03:45:73
  TRACK 147 AUDIO
    TITLE "30:cjc123_6334"
    INDEX 01 03:46:04
  TRACK 148 AUDIO
    TITLE "0:"
    INDEX 01 03:47:23
  TRACK 149 AUDIO
    TITLE "31:cjc123_6335"
    INDEX 01 03:47:70
  TRACK 150 AUDIO
    TITLE "0:"
    INDEX 01 03:52:03
  TRACK 151 AUDIO
    TITLE "32:cjc123_6336"
    INDEX 01 03:52:36
  TRACK 152 AUDIO
    TITLE "0:"
    INDEX 01 03:56:71
